Coordinates
version=1
nRows=29
nColumns=22
inDegrees=yes

Units are S.I. units (second, meters, Newtons, ...)
If the header above contains a line with 'inDegrees', this indicates whether rotational values are in degrees (yes) or radians (no).

endheader
time	pelvis_tilt	pelvis_list	pelvis_rotation	pelvis_tx	pelvis_ty	pelvis_tz	hip_flexion_r	hip_adduction_r	hip_rotation_r	knee_angle_r	ankle_angle_r	subtalar_angle_r	hip_flexion_l	hip_adduction_l	hip_rotation_l	knee_angle_l	ankle_angle_l	subtalar_angle_l	lumbar_extension	lumbar_bending	lumbar_rotation
      2.20000000	      5.48595462	     -5.38512257	    -48.48324201	      1.14705220	      0.80329393	      0.85009877	     17.33210092	     -7.31582566	     10.50164143	    -80.34031238	      6.23380689	      2.86206599	     30.83219078	     -8.92778576	     -3.37931345	    -50.56003943	     14.55754785	      7.98946641	     -8.79129547	     -2.98480734	     22.17048011
      2.21000000	      5.41180508	     -5.19631936	    -48.77843907	      1.15530139	      0.80507187	      0.85485616	     19.48214302	     -7.13975999	     10.07226820	    -80.58296402	      7.32022512	      2.57209529	     30.29846222	     -8.73718378	     -3.74845159	    -50.72529967	     15.30939381	      7.82522955	     -8.79781960	     -3.18134597	     21.96190784
      2.22000000	      5.27103476	     -5.05656402	    -48.92320863	      1.16337854	      0.80786683	      0.85929384	     21.43410522	     -6.99741709	      9.31519278	    -80.34368404	      8.32467472	      2.33569149	     29.61122797	     -8.52248118	     -3.96324677	    -50.47681377	     15.88732925	      7.61555677	     -8.77282860	     -3.22206658	     21.58673799
      2.23000000	      5.09538354	     -4.97200484	    -48.89275031	      1.17133326	      0.81161683	      0.86345389	     23.09982377	     -6.92841937	      8.25333731	    -79.61044963	      9.32385422	      2.26940837	     28.77440220	     -8.26586040	     -4.01859988	    -49.86626619	     16.22165844	      7.47984917	     -8.76034155	     -3.13657178	     21.02966973
      2.24000000	      4.86924580	     -4.89775127	    -48.68839222	      1.17915485	      0.81612140	      0.86743845	     24.52094319	     -6.95179990	      6.91325972	    -78.42411276	     10.18777642	      2.17140215	     27.85947393	     -7.96484159	     -3.90920716	    -48.94680420	     16.36699201	      7.27389547	     -8.70999383	     -2.96617080	     20.29475280
      2.25000000	      4.62115927	     -4.87775135	    -48.31933434	      1.18682821	      0.82134966	      0.87129702	     25.60826120	     -7.03642661	      5.34932263	    -76.79058679	     10.97401695	      1.90965847	     26.83685204	     -7.66215599	     -3.68318904	    -47.77273823	     16.34188181	      6.95112561	     -8.68847387	     -2.71113370	     19.44668054
      2.26000000	      4.32862230	     -4.85460772	    -47.80152756	      1.19430772	      0.82708129	      0.87507243	     26.43944011	     -7.16134638	      3.65827444	    -74.76494450	     11.58843782	      1.78265700	     25.78891688	     -7.35350616	     -3.33259090	    -46.38119513	     16.10837771	      6.78622901	     -8.62755434	     -2.40838799	     18.47553018
      2.27000000	      4.01815421	     -4.90757271	    -47.20635511	      1.20151043	      0.83335641	      0.87889409	     26.91844350	     -7.21877824	      1.93445880	    -72.34036724	     12.08552907	      1.46880753	     24.63869937	     -7.13573861	     -2.96167607	    -44.81950002	     15.69028694	      6.53622631	     -8.60573254	     -2.04105386	     17.54811904
      2.28000000	      3.65661583	     -4.94848577	    -46.55998945	      1.20840268	      0.83987029	      0.88275572	     27.18869935	     -7.19619417	      0.29772846	    -69.59645809	     12.39372807	      1.24562170	     23.50535132	     -6.98663792	     -2.58665044	    -43.12962811	     15.10169443	      6.35292683	     -8.52179118	     -1.65117326	     16.62860925
      2.29000000	      3.24688655	     -4.97574705	    -45.90310332	      1.21499093	      0.84649514	      0.88666244	     27.27738520	     -7.06203975	     -1.16624126	    -66.57519985	     12.49033983	      1.18810072	     22.40900999	     -6.91087338	     -2.22358990	    -41.36639232	     14.36564479	      6.23339806	     -8.37027833	     -1.24258813	     15.76789333
      2.30000000	      2.81536328	     -5.04660222	    -45.29723397	      1.22121123	      0.85323648	      0.89070927	     27.13449801	     -6.74106414	     -2.35973627	    -63.28838114	     12.37056082	      1.21776937	     21.29452274	     -6.97033297	     -1.96109380	    -39.56904688	     13.47964726	      6.14219435	     -8.21487393	     -0.80858932	     15.08374023
      2.31000000	      2.36066511	     -5.10341199	    -44.73850068	      1.22713738	      0.85987781	      0.89481389	     26.84514662	     -6.28137236	     -3.21938403	    -59.80541755	     12.00738356	      1.41966124	     20.24014579	     -7.09967982	     -1.76749838	    -37.79382297	     12.48426016	      6.11137646	     -8.00657978	     -0.37709421	     14.50825185
      2.32000000	      1.90279219	     -5.15487075	    -44.23723079	      1.23280677	      0.86633854	      0.89898408	     26.40481776	     -5.70529399	     -3.72211554	    -56.17167932	     11.41654286	      1.82704991	     19.23924933	     -7.28610064	     -1.64797950	    -36.07786624	     11.41465406	      6.15183242	     -7.76646842	      0.04317856	     14.06470683
      2.33000000	      1.46716394	     -5.16927283	    -43.77782418	      1.23827394	      0.87250180	      0.90317752	     25.84091662	     -5.08161920	     -3.83617053	    -52.45157466	     10.60864513	      2.59787108	     18.31383319	     -7.47258125	     -1.59046562	    -34.45191228	     10.26280126	      6.32251836	     -7.48963193	      0.41117771	     13.70280987
      2.34000000	      1.03019872	     -5.17393426	    -43.32926931	      1.24362124	      0.87827656	      0.90737179	     25.15285948	     -4.42514153	     -3.65792877	    -48.68742403	      9.55681066	      3.32184561	     17.48337499	     -7.67568374	     -1.53177424	    -32.95294031	      9.13109634	      6.47792101	     -7.17488758	      0.77401302	     13.39232195
      2.35000000	      0.61790208	     -5.15583848	    -42.88363429	      1.24888044	      0.88359270	      0.91157069	     24.35236441	     -3.78728440	     -3.18548574	    -44.95039144	      8.28575691	      4.02581634	     16.73502599	     -7.85993900	     -1.46659444	    -31.58397925	      8.05342446	      6.65303978	     -6.83167010	      1.09841002	     13.09954267
      2.36000000	      0.23323282	     -5.12553505	    -42.42140221	      1.25412932	      0.88839313	      0.91578939	     23.44312532	     -3.20483041	     -2.51088390	    -41.30280017	      6.84490421	      4.57489874	     16.05273911	     -8.02326350	     -1.37546109	    -30.34295413	      7.07839723	      6.80743140	     -6.46427496	      1.39140946	     12.79947850
      2.37000000	     -0.07266219	     -5.06322661	    -41.91360346	      1.25942384	      0.89264674	      0.91998678	     22.43238198	     -2.76429634	     -1.70147021	    -37.83083349	      5.29258026	      5.13750295	     15.40516349	     -8.10021377	     -1.23936198	    -29.22267472	      6.19290400	      7.03026779	     -6.10157210	      1.59810018	     12.43270866
      2.38000000	     -0.37140670	     -5.00483725	    -41.36821506	      1.26477738	      0.89626456	      0.92423029	     21.36350915	     -2.39353841	     -0.87357537	    -34.57307032	      3.69029530	      5.32266729	     14.81646024	     -8.17272414	     -1.03631461	    -28.22307946	      5.51317478	      7.12414213	     -5.70416195	      1.79568262	     12.05568835
      2.39000000	     -0.59718093	     -4.93276797	    -40.76929061	      1.27024774	      0.89927649	      0.92849249	     20.23438035	     -2.16961854	     -0.11124087	    -31.60896748	      2.13344943	      5.39220065	     14.21597253	     -8.17290413	     -0.77592292	    -27.29365269	      4.98677307	      7.22667289	     -5.31663226	      1.92210047	     11.63002591
      2.40000000	     -0.78536132	     -4.84796322	    -40.12976473	      1.27579643	      0.90161247	      0.93279206	     19.10124409	     -2.04979968	      0.53460549	    -28.98270605	      0.67583954	      5.31665052	     13.63701852	     -8.13512436	     -0.48823621	    -26.45033120	      4.64713373	      7.29147527	     -4.91581363	      2.00118145	     11.16658144
      2.41000000	     -0.92479866	     -4.76147581	    -39.45863603	      1.28139232	      0.90327677	      0.93710670	     17.96059558	     -2.01649408	      1.04146739	    -26.70565968	     -0.56349200	      5.13256389	     13.06062612	     -8.05798306	     -0.15198821	    -25.69775787	      4.53562310	      7.32364204	     -4.52967942	      2.03244933	     10.72213275
      2.42000000	     -1.03939316	     -4.65536139	    -38.77197670	      1.28698558	      0.90423491	      0.94144762	     16.86375792	     -2.04934813	      1.39421059	    -24.79172731	     -1.55371396	      4.90897047	     12.52332034	     -7.95534581	      0.17262300	    -25.04443511	      4.62145267	      7.31384087	     -4.13372655	      2.01734259	     10.29336187
      2.43000000	     -1.12137894	     -4.53393160	    -38.09465058	      1.29251723	      0.90451827	      0.94582594	     15.81229798	     -2.12862791	      1.62042783	    -23.23598069	     -2.18699080	      4.67240797	     11.99636763	     -7.82979610	      0.48241335	    -24.46313213	      4.93478327	      7.26602144	     -3.74969042	      1.95392019	      9.90918553
      2.44000000	     -1.18085255	     -4.38979733	    -37.42890310	      1.29793905	      0.90413601	      0.95019092	     14.80914718	     -2.24695761	      1.73858004	    -21.98264053	     -2.42802628	      4.48071607	     11.52242957	     -7.68603399	      0.74946038	    -23.99853089	      5.44019867	      7.18211231	     -3.37717782	      1.84685853	      9.57116205
      2.45000000	     -1.23783488	     -4.21533258	    -36.78202730	      1.30320087	      0.90309038	      0.95453225	     13.88742521	     -2.39392720	      1.74980860	    -21.00917213	     -2.21703773	      4.37843099	     11.11161684	     -7.52984474	      1.00821907	    -23.62682955	      6.15895164	      7.10323997	     -3.00123810	      1.70304188	      9.29370329
      2.46000000	     -1.23456621	     -4.03316209	    -36.17141943	      1.30827704	      0.90156081	      0.95883502	     12.93720859	     -2.57801097	      1.72352227	    -20.18034331	     -1.57486296	      4.25821300	     10.70506637	     -7.35154344	      1.18794109	    -23.35994824	      6.99499771	      6.96836311	     -2.70380021	      1.50934725	      9.09426178
      2.47000000	     -1.22647487	     -3.83495302	    -35.60007154	      1.31313956	      0.89951922	      0.96309099	     12.03604067	     -2.77176187	      1.64717213	    -19.49164479	     -0.54456800	      4.14664287	     10.32334396	     -7.17302749	      1.36877596	    -23.13353183	      8.01279265	      6.82511358	     -2.43172535	      1.29949150	      8.95890558
      2.48000000	     -1.20230956	     -3.64049187	    -35.06802535	      1.31776829	      0.89708459	      0.96727975	     11.14389279	     -2.96447943	      1.52409422	    -18.85781016	      0.77707092	      4.01651648	      9.95287146	     -7.00690403	      1.53221774	    -22.95808754	      9.15993063	      6.68405231	     -2.21488406	      1.08566441	      8.88822529
